<?xml version="1.0" encoding="UTF-8"?>
<svg fill="#fefeff" version="1.1" viewBox="0 0 50 50" xmlns="http://www.w3.org/2000/svg">
<path d="m25 1c-13.199 0-24 10.801-24 24 0 10.199 6.3984 18.898 15.301 22.398 0.89844-0.19922 1.6992-1 1.6992-2v-4.3984h-2.6016c-1.8984 0-3.5-0.89844-4.2969-2.3008-0.20312-0.39844-0.40234-0.89844-0.60156-1.3984-0.39844-1.1016-0.89844-2.3008-1.8984-3-0.40234-0.30078-0.60156-0.90234-0.5-1.4023 0.19922-0.5 0.69922-0.89844 1.5977-0.79688 1 0.097656 2.5 1.1992 3.4023 2.3984 0.79688 1 1.3984 1.6016 2.5977 1.6016h0.30078c0.89844 0 3.1016 0 3.5-0.40234 0.30078-0.39844 0.5-0.69922 0.80078-1-6-1.1992-9.4023-4.6992-9.4023-10 0-1.8008 0.5-3.5977 1.6016-5.1992-0.39844-1.5-1.3008-5.3984 0.60156-7.1016l0.29688-0.29688h0.40234c2.5977 0 4.5 1.0977 5.6992 2 3.5-1.3008 7.5-1.3008 11 0 1.1016-0.90234 3-2 5.6992-2h0.40234l0.29688 0.29688c1.9023 1.8008 1 5.6016 0.60156 7.1016 1 1.6016 1.6016 3.3984 1.6016 5.1992 0 5.3008-3.4023 8.8008-9.3008 10 1.5 1.6016 2.3008 4 2.3008 5.9023v4.8984c0 1 0.69922 1.8008 1.6992 2 8.8008-3.6016 15.199-12.301 15.199-22.5 0-13.199-10.801-24-24-24z"/>
</svg>
