<svg xmlns="http://www.w3.org/2000/svg" xmlns:xlink="http://www.w3.org/1999/xlink" viewBox="0 0 50 50" version="1.1" width="50" height="50" style="fill: #fefeff;">
<g id="surface1">
<path style=" " d="M 11 2 C 6 2 2 6 2 11 L 2 25.3125 L 2.4375 25.5 L 9.8125 28.9375 C 11.277344 27.148438 13.507813 26 16 26 C 16.785156 26 17.535156 26.101563 18.25 26.3125 L 22.40625 20.78125 C 22.148438 19.894531 22 18.972656 22 18 C 22 12.476563 26.476563 8 32 8 C 37.523438 8 42 12.476563 42 18 C 42 23.523438 37.523438 28 32 28 C 30.960938 28 29.941406 27.828125 29 27.53125 L 23.65625 31.71875 C 23.875 32.445313 24 33.203125 24 34 C 24 38.417969 20.417969 42 16 42 C 11.582031 42 8 38.417969 8 34 C 8 33.503906 8.070313 33.035156 8.15625 32.5625 L 2 29.6875 L 2 39 C 2 44 6 48 11 48 L 39 48 C 44 48 48 44 48 39 L 48 11 C 48 6 44 2 39 2 Z M 32 12 C 28.699219 12 26 14.699219 26 18 C 26 21.300781 28.699219 24 32 24 C 35.300781 24 38 21.300781 38 18 C 38 14.699219 35.300781 12 32 12 Z M 32 14 C 34.222656 14 36 15.777344 36 18 C 36 20.222656 34.222656 22 32 22 C 29.777344 22 28 20.222656 28 18 C 28 15.777344 29.777344 14 32 14 Z M 16 30 C 15.144531 30 14.367188 30.289063 13.71875 30.75 L 16.6875 32.125 C 17.453125 32.40625 18 33.136719 18 34 C 18 34.703125 17.644531 35.332031 17.09375 35.6875 C 17.054688 35.714844 16.980469 35.726563 16.9375 35.75 C 16.84375 35.800781 16.757813 35.839844 16.65625 35.875 C 16.597656 35.894531 16.53125 35.921875 16.46875 35.9375 C 16.316406 35.976563 16.167969 36 16 36 C 15.863281 36 15.578125 36.003906 15.28125 35.875 C 15.195313 35.839844 15.113281 35.796875 15.03125 35.75 L 12.03125 34.34375 C 12.214844 36.382813 13.914063 38 16 38 C 18.207031 38 20 36.207031 20 34 C 20 31.792969 18.207031 30 16 30 Z "/>
</g>
</svg>
