<?xml version="1.0" encoding="UTF-8"?>
<svg fill="#fefeff" version="1.1" viewBox="0 0 50 50" xmlns="http://www.w3.org/2000/svg">
<path d="m11 2c-5 0-9 4-9 9v14.312l0.4375 0.1875 7.375 3.4375c1.4648-1.7891 3.6953-2.9375 6.1875-2.9375 0.78516 0 1.5352 0.10156 2.25 0.3125l4.1562-5.5312c-0.25781-0.88672-0.40625-1.8086-0.40625-2.7812 0-5.5234 4.4766-10 10-10 5.5234 0 10 4.4766 10 10 0 5.5234-4.4766 10-10 10-1.0391 0-2.0586-0.17188-3-0.46875l-5.3438 4.1875c0.21875 0.72656 0.34375 1.4844 0.34375 2.2812 0 4.418-3.582 8-8 8s-8-3.582-8-8c0-0.49609 0.070313-0.96484 0.15625-1.4375l-6.1562-2.875v9.3125c0 5 4 9 9 9h28c5 0 9-4 9-9v-28c0-5-4-9-9-9zm21 10c-3.3008 0-6 2.6992-6 6s2.6992 6 6 6 6-2.6992 6-6-2.6992-6-6-6zm0 2c2.2227 0 4 1.7773 4 4s-1.7773 4-4 4-4-1.7773-4-4 1.7773-4 4-4zm-16 16c-0.85547 0-1.6328 0.28906-2.2812 0.75l2.9688 1.375c0.76562 0.28125 1.3125 1.0117 1.3125 1.875 0 0.70312-0.35547 1.332-0.90625 1.6875-0.039062 0.027344-0.11328 0.039063-0.15625 0.0625-0.09375 0.050781-0.17969 0.089844-0.28125 0.125-0.058594 0.019531-0.125 0.046875-0.1875 0.0625-0.15234 0.039063-0.30078 0.0625-0.46875 0.0625-0.13672 0-0.42188 0.003906-0.71875-0.125-0.085937-0.035156-0.16797-0.078125-0.25-0.125l-3-1.4062c0.18359 2.0391 1.8828 3.6562 3.9688 3.6562 2.207 0 4-1.793 4-4s-1.793-4-4-4z"/>
</svg>
