<?xml version="1.0" encoding="UTF-8"?>
<svg enable-background="new 0 0 511.999 511.999" version="1.1" viewBox="0 0 512 512" xml:space="preserve" xmlns="http://www.w3.org/2000/svg">
<polygon points="501.8 120.46 441.05 59.701 169.96 330.79 70.954 231.79 10.199 292.54 169.96 452.3" fill="#FF7099"/>
<g fill="#DB006E">
  <path d="m169.96 462.5c-2.61 0-5.22-0.995-7.212-2.987l-159.76-159.76c-3.983-3.983-3.983-10.441 0-14.425l60.754-60.754c1.912-1.912 4.507-2.987 7.212-2.987s5.3 1.075 7.212 2.987l91.793 91.793 263.88-263.88c3.982-3.983 10.441-3.983 14.424 0l60.754 60.755c3.983 3.983 3.983 10.441 0 14.424l-331.84 331.84c-1.991 1.992-4.602 2.988-7.212 2.988zm-145.33-169.96 145.34 145.33 317.42-317.42-46.33-46.33-263.88 263.88c-3.983 3.983-10.442 3.983-14.424 0l-91.792-91.793-46.33 46.331z"/>
  <path d="m355.91 234.6c-2.61 0-5.221-0.995-7.212-2.987-3.983-3.983-3.983-10.441 0-14.425l74.423-74.423c3.983-3.983 10.441-3.983 14.425 0s3.983 10.441 0 14.425l-74.423 74.423c-1.993 1.99-4.603 2.987-7.213 2.987z"/>
  <path d="m454.88 135.65c-2.61 0-5.221-0.995-7.212-2.987-3.983-3.983-3.983-10.441 0-14.425l2.55-2.55c3.983-3.983 10.441-3.983 14.425 0 3.983 3.983 3.983 10.441 0 14.425l-2.55 2.55c-1.992 1.992-4.603 2.987-7.213 2.987z"/>
</g>
</svg>
